#tb 0: 1/25
0,          0,          0,        1,  3686400, 0x8b3ff360
0,          1,          1,        1,  3686400, 0x422dead1
0,          2,          2,        1,  3686400, 0xbdd0e431
0,          3,          3,        1,  3686400, 0x1e3cc216
0,          4,          4,        1,  3686400, 0x1a80b718
0,          5,          5,        1,  3686400, 0xc7e3c0a2
0,          6,          6,        1,  3686400, 0xffc99142
0,          7,          7,        1,  3686400, 0x8b3bdf1e
0,          8,          8,        1,  3686400, 0xff1bccfb
0,          9,          9,        1,  3686400, 0x781fc45b
